<svg width="219" height="63" viewBox="0 0 219 63" fill="none" xmlns="http://www.w3.org/2000/svg">
<g filter="url(#filter0_d_21803_3)">
<path d="M82.96 23.3247C82.96 23.0073 82.9315 22.7184 82.8745 22.458C82.8175 22.1976 82.6955 21.9575 82.5083 21.7378C82.3293 21.5181 82.0648 21.2983 81.7148 21.0786C81.373 20.8589 80.9255 20.631 80.3721 20.395C79.7129 20.1183 79.0741 19.8254 78.4556 19.5161C77.8371 19.1987 77.2796 18.8325 76.7832 18.4175C76.2868 18.0024 75.8921 17.5142 75.5991 16.9526C75.3143 16.383 75.1719 15.7157 75.1719 14.9507C75.1719 14.202 75.3062 13.5225 75.5747 12.9121C75.8514 12.3018 76.242 11.7809 76.7466 11.3496C77.2511 10.9102 77.8411 10.5724 78.5166 10.3364C79.2002 10.1004 79.9611 9.98242 80.7993 9.98242C81.9386 9.98242 82.9233 10.2184 83.7534 10.6904C84.5916 11.1624 85.2386 11.8094 85.6943 12.6313C86.1582 13.4533 86.3901 14.3973 86.3901 15.4634H82.8257C82.8257 14.9588 82.7524 14.5153 82.606 14.1328C82.4676 13.7422 82.2438 13.437 81.9346 13.2173C81.6253 12.9976 81.2266 12.8877 80.7383 12.8877C80.2826 12.8877 79.9041 12.9813 79.603 13.1685C79.3101 13.3475 79.0903 13.5957 78.9438 13.9131C78.8055 14.2223 78.7363 14.5723 78.7363 14.9629C78.7363 15.2559 78.8055 15.5203 78.9438 15.7563C79.0903 15.9842 79.2897 16.1917 79.542 16.3789C79.7943 16.5579 80.0913 16.7329 80.4331 16.9038C80.783 17.0747 81.1655 17.2415 81.5806 17.4043C82.3862 17.7217 83.0983 18.0716 83.7168 18.4541C84.3353 18.8285 84.8521 19.2516 85.2671 19.7236C85.6821 20.1875 85.9954 20.7124 86.207 21.2983C86.4186 21.8843 86.5244 22.5516 86.5244 23.3003C86.5244 24.0409 86.3942 24.7163 86.1338 25.3267C85.8815 25.9289 85.5112 26.4497 85.0229 26.8892C84.5347 27.3205 83.9447 27.6541 83.2529 27.8901C82.5693 28.1261 81.8044 28.2441 80.958 28.2441C80.1361 28.2441 79.3589 28.1302 78.6265 27.9023C77.894 27.6663 77.2471 27.3123 76.6855 26.8403C76.1322 26.3602 75.6968 25.7539 75.3794 25.0215C75.062 24.2809 74.9033 23.4061 74.9033 22.397H78.48C78.48 22.9341 78.5329 23.3939 78.6387 23.7764C78.7445 24.1507 78.9072 24.4518 79.127 24.6797C79.3467 24.8994 79.6152 25.0662 79.9326 25.1802C80.2581 25.286 80.6284 25.3389 81.0435 25.3389C81.5155 25.3389 81.8898 25.2493 82.1665 25.0703C82.4513 24.8913 82.6548 24.6512 82.7769 24.3501C82.8989 24.049 82.96 23.7072 82.96 23.3247ZM92.2129 17.5264V28H88.7827V14.792H92.0054L92.2129 17.5264ZM91.7246 20.9443L90.7847 20.9688C90.7684 20.041 90.8498 19.1865 91.0288 18.4053C91.2078 17.624 91.4764 16.9445 91.8345 16.3667C92.2007 15.7889 92.6605 15.3413 93.2139 15.0239C93.7673 14.7065 94.4142 14.5479 95.1548 14.5479C95.6349 14.5479 96.0785 14.6374 96.4854 14.8164C96.8923 14.9873 97.2463 15.2599 97.5474 15.6343C97.8485 16.0005 98.0804 16.4806 98.2432 17.0747C98.4059 17.6606 98.4873 18.3646 98.4873 19.1865V28H95.0693V19.6016C95.0693 19.0156 95.0124 18.568 94.8984 18.2588C94.7845 17.9414 94.6217 17.7217 94.4102 17.5996C94.1986 17.4694 93.9382 17.4043 93.6289 17.4043C93.3034 17.4043 93.0186 17.4938 92.7744 17.6729C92.5303 17.8519 92.3309 18.1042 92.1763 18.4297C92.0298 18.7471 91.9159 19.1214 91.8345 19.5527C91.7612 19.984 91.7246 20.4479 91.7246 20.9443ZM98.1577 20.6025L96.9248 20.7612C96.9085 19.8905 96.9858 19.0807 97.1567 18.332C97.3276 17.5752 97.5921 16.916 97.9502 16.3545C98.3083 15.7848 98.7559 15.3413 99.293 15.0239C99.8382 14.7065 100.469 14.5479 101.185 14.5479C101.722 14.5479 102.21 14.6374 102.65 14.8164C103.089 14.9954 103.464 15.2843 103.773 15.6831C104.09 16.0737 104.33 16.5905 104.493 17.2334C104.664 17.8763 104.75 18.6576 104.75 19.5771V28H101.319V19.5894C101.319 18.9953 101.262 18.5396 101.148 18.2222C101.035 17.9048 100.872 17.6891 100.66 17.5752C100.449 17.4613 100.196 17.4043 99.9033 17.4043C99.6104 17.4043 99.354 17.4857 99.1343 17.6484C98.9227 17.8112 98.7437 18.0391 98.5972 18.332C98.4507 18.6169 98.3408 18.9546 98.2676 19.3452C98.1943 19.7277 98.1577 20.1468 98.1577 20.6025ZM113.148 24.9604V18.8569C113.148 18.4582 113.099 18.1408 113.001 17.9048C112.912 17.6688 112.774 17.4979 112.586 17.3921C112.407 17.2782 112.188 17.2212 111.927 17.2212C111.634 17.2212 111.39 17.2822 111.195 17.4043C111 17.5264 110.853 17.7013 110.755 17.9292C110.666 18.1571 110.621 18.4297 110.621 18.7471H107.191C107.191 18.1774 107.301 17.6403 107.521 17.1357C107.74 16.623 108.062 16.1755 108.485 15.793C108.916 15.4023 109.429 15.0972 110.023 14.8774C110.617 14.6577 111.284 14.5479 112.025 14.5479C112.904 14.5479 113.685 14.6984 114.369 14.9995C115.052 15.2925 115.593 15.7604 115.992 16.4033C116.391 17.0462 116.59 17.8804 116.59 18.9058V24.7896C116.59 25.5301 116.627 26.1323 116.7 26.5962C116.782 27.0601 116.9 27.4588 117.054 27.7925V28H113.612C113.457 27.6338 113.339 27.1781 113.258 26.6328C113.185 26.0794 113.148 25.522 113.148 24.9604ZM113.563 19.9312L113.575 21.9819H112.318C111.992 21.9819 111.708 22.0348 111.463 22.1406C111.227 22.2464 111.028 22.397 110.865 22.5923C110.702 22.7795 110.58 22.9992 110.499 23.2515C110.426 23.5037 110.389 23.7723 110.389 24.0571C110.389 24.3745 110.434 24.6431 110.523 24.8628C110.613 25.0825 110.747 25.2493 110.926 25.3633C111.105 25.4772 111.317 25.5342 111.561 25.5342C111.935 25.5342 112.261 25.4569 112.538 25.3022C112.814 25.1476 113.018 24.9604 113.148 24.7407C113.286 24.521 113.331 24.3175 113.282 24.1304L114.063 25.4609C113.966 25.762 113.832 26.0754 113.661 26.4009C113.498 26.7264 113.29 27.0275 113.038 27.3042C112.786 27.5809 112.472 27.8088 112.098 27.9878C111.732 28.1587 111.297 28.2441 110.792 28.2441C110.084 28.2441 109.437 28.0814 108.851 27.7559C108.265 27.4303 107.801 26.9746 107.459 26.3887C107.126 25.8027 106.959 25.1069 106.959 24.3013C106.959 23.634 107.065 23.0317 107.276 22.4946C107.496 21.9494 107.822 21.4896 108.253 21.1152C108.684 20.7327 109.229 20.4398 109.889 20.2363C110.548 20.0329 111.321 19.9312 112.208 19.9312H113.563ZM122.535 17.7339V28H119.117V14.792H122.34L122.535 17.7339ZM125.648 14.6943L125.599 18.1001C125.444 18.0675 125.257 18.0431 125.038 18.0269C124.826 18.0106 124.639 18.0024 124.476 18.0024C124.094 18.0024 123.768 18.0635 123.5 18.1855C123.231 18.2995 123.007 18.4744 122.828 18.7104C122.657 18.9383 122.527 19.2231 122.438 19.5649C122.348 19.9067 122.295 20.2933 122.279 20.7246L121.632 20.4805C121.632 19.6178 121.697 18.8285 121.827 18.1123C121.965 17.388 122.169 16.7614 122.438 16.2324C122.706 15.6953 123.028 15.2803 123.402 14.9873C123.784 14.6943 124.216 14.5479 124.696 14.5479C124.859 14.5479 125.029 14.5641 125.208 14.5967C125.396 14.6211 125.542 14.6536 125.648 14.6943ZM133.766 14.792V17.3677H127.027V14.792H133.766ZM128.578 11.5327H131.983V23.9717C131.983 24.3379 132.02 24.6187 132.093 24.814C132.167 25.0093 132.276 25.1476 132.423 25.229C132.577 25.3022 132.781 25.3389 133.033 25.3389C133.204 25.3389 133.363 25.3307 133.509 25.3145C133.656 25.29 133.766 25.2656 133.839 25.2412V27.9146C133.57 28.0203 133.285 28.1017 132.984 28.1587C132.691 28.2157 132.341 28.2441 131.935 28.2441C131.251 28.2441 130.657 28.1139 130.152 27.8535C129.656 27.5931 129.269 27.1781 128.993 26.6084C128.716 26.0306 128.578 25.2738 128.578 24.3379V11.5327ZM146.241 28H143.104L143.128 25.0459H146.241C147.104 25.0459 147.775 24.8913 148.255 24.582C148.736 24.2728 149.073 23.7845 149.269 23.1172C149.472 22.4499 149.574 21.575 149.574 20.4927V17.7217C149.574 16.8997 149.521 16.2039 149.415 15.6343C149.309 15.0565 149.13 14.5926 148.878 14.2427C148.626 13.8846 148.288 13.6201 147.865 13.4492C147.442 13.2783 146.917 13.1929 146.29 13.1929H143.043V10.2266H146.29C147.315 10.2266 148.247 10.3934 149.085 10.7271C149.924 11.0607 150.644 11.549 151.246 12.1919C151.848 12.8267 152.312 13.612 152.638 14.5479C152.963 15.4837 153.126 16.5498 153.126 17.7461V20.4927C153.126 21.6971 152.963 22.7632 152.638 23.6909C152.312 24.6187 151.848 25.404 151.246 26.0469C150.652 26.6816 149.932 27.1659 149.085 27.4995C148.239 27.8332 147.291 28 146.241 28ZM145.179 10.2266V28H141.603V10.2266H145.179ZM160.89 28.2441C159.986 28.2441 159.185 28.1058 158.485 27.8291C157.793 27.5524 157.207 27.1536 156.727 26.6328C156.247 26.1038 155.881 25.465 155.628 24.7163C155.376 23.9676 155.25 23.1131 155.25 22.1528V21.0664C155.25 19.9922 155.372 19.0522 155.616 18.2466C155.86 17.4328 156.206 16.7492 156.654 16.1958C157.101 15.6424 157.651 15.2314 158.302 14.9629C158.961 14.6862 159.706 14.5479 160.536 14.5479C161.366 14.5479 162.094 14.6862 162.721 14.9629C163.355 15.2314 163.88 15.6383 164.295 16.1836C164.71 16.7207 165.024 17.388 165.235 18.1855C165.447 18.9831 165.553 19.9108 165.553 20.9688V22.5312H156.703V20.1265H162.196V19.8213C162.196 19.2842 162.139 18.8366 162.025 18.4785C161.911 18.1123 161.732 17.8397 161.488 17.6606C161.244 17.4816 160.918 17.3921 160.511 17.3921C160.169 17.3921 159.881 17.4613 159.645 17.5996C159.409 17.738 159.221 17.9536 159.083 18.2466C158.945 18.5396 158.843 18.922 158.778 19.394C158.713 19.8579 158.68 20.4154 158.68 21.0664V22.1528C158.68 22.7632 158.733 23.2759 158.839 23.6909C158.945 24.0978 159.099 24.4315 159.303 24.6919C159.514 24.9442 159.771 25.1273 160.072 25.2412C160.373 25.347 160.723 25.3999 161.122 25.3999C161.724 25.3999 162.265 25.2941 162.745 25.0825C163.233 24.8628 163.648 24.5658 163.99 24.1914L165.357 26.2666C165.121 26.5758 164.796 26.8851 164.381 27.1943C163.966 27.5036 163.469 27.7559 162.892 27.9512C162.314 28.1465 161.646 28.2441 160.89 28.2441ZM171.253 25.3633L173.377 14.792H176.942L173.316 28H171.18L171.253 25.3633ZM169.996 14.792L172.157 25.3755L172.193 28H170.045L166.419 14.792H169.996ZM182.179 14.792V28H178.749V14.792H182.179ZM178.59 11.374C178.59 10.8451 178.757 10.4097 179.09 10.0679C179.432 9.71794 179.888 9.54297 180.458 9.54297C181.035 9.54297 181.491 9.71794 181.825 10.0679C182.158 10.4097 182.325 10.8451 182.325 11.374C182.325 11.8949 182.154 12.3302 181.812 12.6802C181.479 13.022 181.031 13.1929 180.47 13.1929C179.892 13.1929 179.432 13.022 179.09 12.6802C178.757 12.3302 178.59 11.8949 178.59 11.374ZM189.662 25.3999C189.979 25.3999 190.252 25.3348 190.479 25.2046C190.715 25.0744 190.895 24.8628 191.017 24.5698C191.139 24.2769 191.204 23.8984 191.212 23.4346H194.422C194.422 24.4274 194.211 25.286 193.788 26.0103C193.373 26.7264 192.811 27.2798 192.103 27.6704C191.403 28.0529 190.61 28.2441 189.723 28.2441C188.836 28.2441 188.062 28.1017 187.403 27.8169C186.744 27.5321 186.199 27.117 185.768 26.5718C185.344 26.0265 185.023 25.3633 184.803 24.582C184.592 23.7926 184.486 22.8893 184.486 21.8721V20.9077C184.486 19.9067 184.592 19.0116 184.803 18.2222C185.023 17.4328 185.344 16.7655 185.768 16.2202C186.199 15.675 186.74 15.2599 187.391 14.9751C188.05 14.6903 188.823 14.5479 189.71 14.5479C190.663 14.5479 191.489 14.7472 192.188 15.146C192.888 15.5366 193.434 16.1144 193.824 16.8794C194.223 17.6444 194.422 18.5884 194.422 19.7114H191.212C191.204 19.2069 191.143 18.7878 191.029 18.4541C190.923 18.1123 190.756 17.8519 190.528 17.6729C190.309 17.4857 190.016 17.3921 189.649 17.3921C189.267 17.3921 188.958 17.4735 188.722 17.6362C188.494 17.7909 188.319 18.0187 188.197 18.3198C188.083 18.6128 188.006 18.979 187.965 19.4185C187.924 19.8579 187.904 20.3543 187.904 20.9077V21.8721C187.904 22.4661 187.92 22.9829 187.953 23.4224C187.993 23.8537 188.071 24.2199 188.185 24.521C188.307 24.814 188.482 25.0337 188.709 25.1802C188.945 25.3267 189.263 25.3999 189.662 25.3999ZM201.71 28.2441C200.807 28.2441 200.005 28.1058 199.305 27.8291C198.613 27.5524 198.028 27.1536 197.547 26.6328C197.067 26.1038 196.701 25.465 196.449 24.7163C196.196 23.9676 196.07 23.1131 196.07 22.1528V21.0664C196.07 19.9922 196.192 19.0522 196.437 18.2466C196.681 17.4328 197.027 16.7492 197.474 16.1958C197.922 15.6424 198.471 15.2314 199.122 14.9629C199.781 14.6862 200.526 14.5479 201.356 14.5479C202.186 14.5479 202.914 14.6862 203.541 14.9629C204.176 15.2314 204.701 15.6383 205.116 16.1836C205.531 16.7207 205.844 17.388 206.056 18.1855C206.267 18.9831 206.373 19.9108 206.373 20.9688V22.5312H197.523V20.1265H203.016V19.8213C203.016 19.2842 202.959 18.8366 202.845 18.4785C202.731 18.1123 202.552 17.8397 202.308 17.6606C202.064 17.4816 201.738 17.3921 201.332 17.3921C200.99 17.3921 200.701 17.4613 200.465 17.5996C200.229 17.738 200.042 17.9536 199.903 18.2466C199.765 18.5396 199.663 18.922 199.598 19.394C199.533 19.8579 199.5 20.4154 199.5 21.0664V22.1528C199.5 22.7632 199.553 23.2759 199.659 23.6909C199.765 24.0978 199.92 24.4315 200.123 24.6919C200.335 24.9442 200.591 25.1273 200.892 25.2412C201.193 25.347 201.543 25.3999 201.942 25.3999C202.544 25.3999 203.085 25.2941 203.565 25.0825C204.054 24.8628 204.469 24.5658 204.811 24.1914L206.178 26.2666C205.942 26.5758 205.616 26.8851 205.201 27.1943C204.786 27.5036 204.29 27.7559 203.712 27.9512C203.134 28.1465 202.467 28.2441 201.71 28.2441Z" fill="#F2F5F7"/>
<path d="M76.5664 45.3086L78.2891 39.6602H79.8008L77.2578 46.9668C77.1992 47.123 77.123 47.293 77.0293 47.4766C76.9355 47.6602 76.8125 47.834 76.6602 47.998C76.5117 48.166 76.3262 48.3008 76.1035 48.4023C75.8809 48.5078 75.6113 48.5605 75.2949 48.5605C75.1699 48.5605 75.0488 48.5488 74.9316 48.5254C74.8184 48.5059 74.7109 48.4844 74.6094 48.4609L74.6035 47.3828C74.6426 47.3867 74.6895 47.3906 74.7441 47.3945C74.8027 47.3984 74.8496 47.4004 74.8848 47.4004C75.1191 47.4004 75.3145 47.3711 75.4707 47.3125C75.627 47.2578 75.7539 47.168 75.8516 47.043C75.9531 46.918 76.0391 46.75 76.1094 46.5391L76.5664 45.3086ZM75.5938 39.6602L77.0996 44.4062L77.3516 45.8945L76.373 46.1465L74.0703 39.6602H75.5938ZM84.377 44.2891L86.2637 39.6602H87.4883L84.8574 46H83.8965L81.2715 39.6602H82.4961L84.377 44.2891ZM82.1328 39.6602V46H80.7207V39.6602H82.1328ZM86.6211 46V39.6602H88.0391V46H86.6211ZM93.9512 42.3086V43.4219H90.6699V42.3086H93.9512ZM91.0801 39.6602V46H89.668V39.6602H91.0801ZM94.9707 39.6602V46H93.5586V39.6602H94.9707ZM97.5254 41.6758H99.3945C99.9414 41.6758 100.406 41.7676 100.789 41.9512C101.172 42.1348 101.463 42.3906 101.662 42.7188C101.865 43.043 101.967 43.4141 101.967 43.832C101.967 44.1406 101.91 44.4277 101.797 44.6934C101.684 44.9551 101.516 45.1836 101.293 45.3789C101.074 45.5742 100.805 45.7266 100.484 45.8359C100.168 45.9453 99.8047 46 99.3945 46H96.5879V39.6602H98.0059V44.8809H99.3945C99.6758 44.8809 99.9004 44.832 100.068 44.7344C100.236 44.6367 100.357 44.5098 100.432 44.3535C100.51 44.1973 100.549 44.0312 100.549 43.8555C100.549 43.6758 100.51 43.5059 100.432 43.3457C100.357 43.1855 100.236 43.0547 100.068 42.9531C99.9004 42.8516 99.6758 42.8008 99.3945 42.8008H97.5254V41.6758ZM104.463 39.6602V46H103.051V39.6602H104.463ZM108.928 46.1172C108.459 46.1172 108.035 46.041 107.656 45.8887C107.281 45.7324 106.961 45.5156 106.695 45.2383C106.434 44.9609 106.232 44.6348 106.092 44.2598C105.951 43.8848 105.881 43.4805 105.881 43.0469V42.8125C105.881 42.3164 105.953 41.8672 106.098 41.4648C106.242 41.0625 106.443 40.7188 106.701 40.4336C106.959 40.1445 107.264 39.9238 107.615 39.7715C107.967 39.6191 108.348 39.543 108.758 39.543C109.211 39.543 109.607 39.6191 109.947 39.7715C110.287 39.9238 110.568 40.1387 110.791 40.416C111.018 40.6895 111.186 41.0156 111.295 41.3945C111.408 41.7734 111.465 42.1914 111.465 42.6484V43.252H106.566V42.2383H110.07V42.127C110.062 41.873 110.012 41.6348 109.918 41.4121C109.828 41.1895 109.689 41.0098 109.502 40.873C109.314 40.7363 109.064 40.668 108.752 40.668C108.518 40.668 108.309 40.7188 108.125 40.8203C107.945 40.918 107.795 41.0605 107.674 41.248C107.553 41.4355 107.459 41.6621 107.393 41.9277C107.33 42.1895 107.299 42.4844 107.299 42.8125V43.0469C107.299 43.3242 107.336 43.582 107.41 43.8203C107.488 44.0547 107.602 44.2598 107.75 44.4355C107.898 44.6113 108.078 44.75 108.289 44.8516C108.5 44.9492 108.74 44.998 109.01 44.998C109.35 44.998 109.652 44.9297 109.918 44.793C110.184 44.6562 110.414 44.4629 110.609 44.2129L111.354 44.9336C111.217 45.1328 111.039 45.3242 110.82 45.5078C110.602 45.6875 110.334 45.834 110.018 45.9473C109.705 46.0605 109.342 46.1172 108.928 46.1172ZM118.496 39.6602V46H117.078V39.6602H118.496ZM120.576 39.6602V40.7734H115.033V39.6602H120.576ZM123.881 46.1172C123.412 46.1172 122.988 46.041 122.609 45.8887C122.234 45.7324 121.914 45.5156 121.648 45.2383C121.387 44.9609 121.186 44.6348 121.045 44.2598C120.904 43.8848 120.834 43.4805 120.834 43.0469V42.8125C120.834 42.3164 120.906 41.8672 121.051 41.4648C121.195 41.0625 121.396 40.7188 121.654 40.4336C121.912 40.1445 122.217 39.9238 122.568 39.7715C122.92 39.6191 123.301 39.543 123.711 39.543C124.164 39.543 124.561 39.6191 124.9 39.7715C125.24 39.9238 125.521 40.1387 125.744 40.416C125.971 40.6895 126.139 41.0156 126.248 41.3945C126.361 41.7734 126.418 42.1914 126.418 42.6484V43.252H121.52V42.2383H125.023V42.127C125.016 41.873 124.965 41.6348 124.871 41.4121C124.781 41.1895 124.643 41.0098 124.455 40.873C124.268 40.7363 124.018 40.668 123.705 40.668C123.471 40.668 123.262 40.7188 123.078 40.8203C122.898 40.918 122.748 41.0605 122.627 41.248C122.506 41.4355 122.412 41.6621 122.346 41.9277C122.283 42.1895 122.252 42.4844 122.252 42.8125V43.0469C122.252 43.3242 122.289 43.582 122.363 43.8203C122.441 44.0547 122.555 44.2598 122.703 44.4355C122.852 44.6113 123.031 44.75 123.242 44.8516C123.453 44.9492 123.693 44.998 123.963 44.998C124.303 44.998 124.605 44.9297 124.871 44.793C125.137 44.6562 125.367 44.4629 125.562 44.2129L126.307 44.9336C126.17 45.1328 125.992 45.3242 125.773 45.5078C125.555 45.6875 125.287 45.834 124.971 45.9473C124.658 46.0605 124.295 46.1172 123.881 46.1172ZM128.598 39.6602L129.805 41.7637L131.035 39.6602H132.588L130.666 42.7715L132.664 46H131.111L129.822 43.8086L128.533 46H126.975L128.967 42.7715L127.051 39.6602H128.598ZM137.885 42.3086V43.4219H134.604V42.3086H137.885ZM135.014 39.6602V46H133.602V39.6602H135.014ZM138.904 39.6602V46H137.492V39.6602H138.904ZM140.141 42.9004V42.7656C140.141 42.3086 140.207 41.8848 140.34 41.4941C140.473 41.0996 140.664 40.7578 140.914 40.4688C141.168 40.1758 141.477 39.9492 141.84 39.7891C142.207 39.625 142.621 39.543 143.082 39.543C143.547 39.543 143.961 39.625 144.324 39.7891C144.691 39.9492 145.002 40.1758 145.256 40.4688C145.51 40.7578 145.703 41.0996 145.836 41.4941C145.969 41.8848 146.035 42.3086 146.035 42.7656V42.9004C146.035 43.3574 145.969 43.7812 145.836 44.1719C145.703 44.5625 145.51 44.9043 145.256 45.1973C145.002 45.4863 144.693 45.7129 144.33 45.877C143.967 46.0371 143.555 46.1172 143.094 46.1172C142.629 46.1172 142.213 46.0371 141.846 45.877C141.482 45.7129 141.174 45.4863 140.92 45.1973C140.666 44.9043 140.473 44.5625 140.34 44.1719C140.207 43.7812 140.141 43.3574 140.141 42.9004ZM141.553 42.7656V42.9004C141.553 43.1855 141.582 43.4551 141.641 43.709C141.699 43.9629 141.791 44.1855 141.916 44.377C142.041 44.5684 142.201 44.7188 142.396 44.8281C142.592 44.9375 142.824 44.9922 143.094 44.9922C143.355 44.9922 143.582 44.9375 143.773 44.8281C143.969 44.7188 144.129 44.5684 144.254 44.377C144.379 44.1855 144.471 43.9629 144.529 43.709C144.592 43.4551 144.623 43.1855 144.623 42.9004V42.7656C144.623 42.4844 144.592 42.2188 144.529 41.9688C144.471 41.7148 144.377 41.4902 144.248 41.2949C144.123 41.0996 143.963 40.9473 143.768 40.8379C143.576 40.7246 143.348 40.668 143.082 40.668C142.816 40.668 142.586 40.7246 142.391 40.8379C142.199 40.9473 142.041 41.0996 141.916 41.2949C141.791 41.4902 141.699 41.7148 141.641 41.9688C141.582 42.2188 141.553 42.4844 141.553 42.7656ZM151.385 39.6602V40.7852H148.291V39.6602H151.385ZM152.492 39.6602V46H151.08V39.6602H152.492ZM147.945 39.6602H149.34L149.17 42.7949C149.146 43.2598 149.1 43.6699 149.029 44.0254C148.963 44.377 148.873 44.6797 148.76 44.9336C148.646 45.1836 148.508 45.3867 148.344 45.543C148.18 45.6992 147.988 45.8145 147.77 45.8887C147.551 45.9629 147.305 46 147.031 46H146.592L146.586 44.8398L146.809 44.8223C146.953 44.8105 147.078 44.7734 147.184 44.7109C147.289 44.6445 147.379 44.5508 147.453 44.4297C147.531 44.3086 147.594 44.1523 147.641 43.9609C147.691 43.7695 147.73 43.543 147.758 43.2812C147.789 43.0195 147.812 42.7148 147.828 42.3672L147.945 39.6602ZM153.723 42.9004V42.7656C153.723 42.3086 153.789 41.8848 153.922 41.4941C154.055 41.0996 154.246 40.7578 154.496 40.4688C154.75 40.1758 155.059 39.9492 155.422 39.7891C155.789 39.625 156.203 39.543 156.664 39.543C157.129 39.543 157.543 39.625 157.906 39.7891C158.273 39.9492 158.584 40.1758 158.838 40.4688C159.092 40.7578 159.285 41.0996 159.418 41.4941C159.551 41.8848 159.617 42.3086 159.617 42.7656V42.9004C159.617 43.3574 159.551 43.7812 159.418 44.1719C159.285 44.5625 159.092 44.9043 158.838 45.1973C158.584 45.4863 158.275 45.7129 157.912 45.877C157.549 46.0371 157.137 46.1172 156.676 46.1172C156.211 46.1172 155.795 46.0371 155.428 45.877C155.064 45.7129 154.756 45.4863 154.502 45.1973C154.248 44.9043 154.055 44.5625 153.922 44.1719C153.789 43.7812 153.723 43.3574 153.723 42.9004ZM155.135 42.7656V42.9004C155.135 43.1855 155.164 43.4551 155.223 43.709C155.281 43.9629 155.373 44.1855 155.498 44.377C155.623 44.5684 155.783 44.7188 155.979 44.8281C156.174 44.9375 156.406 44.9922 156.676 44.9922C156.938 44.9922 157.164 44.9375 157.355 44.8281C157.551 44.7188 157.711 44.5684 157.836 44.377C157.961 44.1855 158.053 43.9629 158.111 43.709C158.174 43.4551 158.205 43.1855 158.205 42.9004V42.7656C158.205 42.4844 158.174 42.2188 158.111 41.9688C158.053 41.7148 157.959 41.4902 157.83 41.2949C157.705 41.0996 157.545 40.9473 157.35 40.8379C157.158 40.7246 156.93 40.668 156.664 40.668C156.398 40.668 156.168 40.7246 155.973 40.8379C155.781 40.9473 155.623 41.0996 155.498 41.2949C155.373 41.4902 155.281 41.7148 155.223 41.9688C155.164 42.2188 155.135 42.4844 155.135 42.7656ZM165.02 39.6602V40.7852H162.254V46H160.842V39.6602H165.02ZM167.299 43.9375L169.789 39.6602H171.201V46H169.789V41.7168L167.299 46H165.887V39.6602H167.299V43.9375ZM174.154 43.9375L176.645 39.6602H178.057V46H176.645V41.7168L174.154 46H172.742V39.6602H174.154V43.9375Z" fill="white" fill-opacity="0.7"/>
<path d="M37.9167 14.6664C39.1102 14.6664 40.1185 15.4355 40.498 16.4997H50.002C50.3815 15.4355 51.3899 14.6664 52.5834 14.6664C54.0995 14.6664 55.3334 15.9002 55.3334 17.4164C55.3334 18.9325 54.0995 20.1663 52.5834 20.1663C51.3899 20.1663 50.3815 19.3973 50.002 18.333H40.4971C40.1176 19.3973 39.1093 20.1663 37.9158 20.1663C36.3996 20.1663 35.1658 18.9325 35.1658 17.4164C35.1658 15.9002 36.4005 14.6664 37.9167 14.6664ZM52.5834 18.333C53.0884 18.333 53.5 17.9224 53.5 17.4164C53.5 16.9104 53.0884 16.4997 52.5834 16.4997C52.0783 16.4997 51.6667 16.9104 51.6667 17.4164C51.6667 17.9224 52.0783 18.333 52.5834 18.333ZM37.9167 18.333C38.4218 18.333 38.8334 17.9224 38.8334 17.4164C38.8334 16.9104 38.4218 16.4997 37.9167 16.4997C37.4116 16.4997 37 16.9104 37 17.4164C37 17.9224 37.4116 18.333 37.9167 18.333Z" fill="#00B2FF"/>
<path d="M30.5834 20.335V14.6664C30.5834 14.4226 30.6796 14.1898 30.8519 14.0184L34.5186 10.3517C34.69 10.1794 34.9238 10.0832 35.1667 10.0832H38.0854C38.4649 9.01893 39.4732 8.24986 40.6667 8.24986C42.1829 8.24986 43.4167 9.48368 43.4167 10.9998C43.4167 12.516 42.1829 13.7498 40.6667 13.7498C39.4732 13.7498 38.4649 12.9807 38.0854 11.9165H35.5462L32.4167 15.0459V20.335C33.4809 20.7145 34.25 21.7228 34.25 22.9163C34.25 24.4324 33.0162 25.6662 31.5 25.6662C29.9839 25.6662 28.75 24.4324 28.75 22.9163C28.75 21.7228 29.5191 20.7145 30.5834 20.335ZM40.6667 11.9165C41.1718 11.9165 41.5834 11.5058 41.5834 10.9998C41.5834 10.4938 41.1718 10.0832 40.6667 10.0832C40.1616 10.0832 39.75 10.4938 39.75 10.9998C39.75 11.5058 40.1616 11.9165 40.6667 11.9165ZM31.5 23.8329C32.0051 23.8329 32.4167 23.4223 32.4167 22.9163C32.4167 22.4103 32.0051 21.9996 31.5 21.9996C30.9949 21.9996 30.5834 22.4103 30.5834 22.9163C30.5834 23.4223 30.9949 23.8329 31.5 23.8329Z" fill="#00B2FF"/>
<path d="M14.0833 23.8329C14.5068 23.8329 14.9028 23.9365 15.2613 24.1089L16.8333 22.5368V13.7498C16.8333 13.5059 16.9296 13.2731 17.1019 13.1017L26.2759 3.92785C26.1036 3.56944 26 3.17345 26 2.74995C26 1.23381 27.2338 0 28.75 0C30.2662 0 31.5 1.23381 31.5 2.74995C31.5 4.2661 30.2662 5.49991 28.75 5.49991C28.3265 5.49991 27.9305 5.39633 27.5721 5.224L18.6667 14.1293V22.9163C18.6667 23.1601 18.5704 23.3929 18.3981 23.5644L16.5574 25.405C16.7298 25.7634 16.8333 26.1594 16.8333 26.5829C16.8333 28.099 15.5995 29.3328 14.0833 29.3328C12.5672 29.3328 11.3333 28.099 11.3333 26.5829C11.3333 25.0667 12.5672 23.8329 14.0833 23.8329ZM28.75 3.66661C29.2551 3.66661 29.6667 3.25595 29.6667 2.74995C29.6667 2.24396 29.2551 1.8333 28.75 1.8333C28.2449 1.8333 27.8333 2.24396 27.8333 2.74995C27.8333 3.25595 28.2449 3.66661 28.75 3.66661ZM14.0833 27.4995C14.5884 27.4995 15 27.0889 15 26.5829C15 26.0769 14.5884 25.6662 14.0833 25.6662C13.5783 25.6662 13.1667 26.0769 13.1667 26.5829C13.1667 27.0889 13.5783 27.4995 14.0833 27.4995Z" fill="#00B2FF"/>
<path d="M5.83336 13.0018V9.16651C5.83336 8.92268 5.92961 8.68986 6.10195 8.51844L12.5186 2.10188C12.69 1.92955 12.9238 1.8333 13.1667 1.8333H17.9187C18.2982 0.769071 19.3065 0 20.5 0C22.0162 0 23.25 1.23381 23.25 2.74995C23.25 4.2661 22.0162 5.49991 20.5 5.49991C19.3065 5.49991 18.2982 4.73084 17.9187 3.66661H13.5462L7.6667 9.54601V13.0018C8.73095 13.3813 9.50003 14.3896 9.50003 15.5831C9.50003 17.0992 8.2662 18.333 6.75003 18.333C5.23386 18.333 4.00003 17.0992 4.00003 15.5831C4.00003 14.3896 4.76911 13.3813 5.83336 13.0018ZM20.5 3.66661C21.0051 3.66661 21.4167 3.25595 21.4167 2.74995C21.4167 2.24396 21.0051 1.8333 20.5 1.8333C19.9949 1.8333 19.5834 2.24396 19.5834 2.74995C19.5834 3.25595 19.9949 3.66661 20.5 3.66661ZM6.75003 16.4997C7.25511 16.4997 7.6667 16.0891 7.6667 15.5831C7.6667 15.0771 7.25511 14.6664 6.75003 14.6664C6.24495 14.6664 5.83336 15.0771 5.83336 15.5831C5.83336 16.0891 6.24495 16.4997 6.75003 16.4997Z" fill="#00B2FF"/>
<path d="M18.6658 49.6688V36.4974C17.6024 36.1179 16.8334 35.1096 16.8334 33.9161C16.8334 32.4 18.0672 31.1662 19.5834 31.1662C20.7769 31.1662 21.7852 31.9352 22.1647 32.9995H31.6687C32.0482 31.9352 33.0565 31.1662 34.25 31.1662C35.4435 31.1662 36.4519 31.9352 36.8314 32.9995H42.1205L45.5259 29.5941C45.3536 29.2357 45.25 28.8397 45.25 28.4162C45.25 26.9001 46.4839 25.6663 48 25.6663C49.5162 25.6663 50.75 26.9001 50.75 28.4162C50.75 29.9324 49.5162 31.1662 48 31.1662C47.5765 31.1662 47.1805 31.0626 46.8221 30.8903L43.1481 34.5642C42.9767 34.7365 42.7429 34.8328 42.5 34.8328H36.8314C36.4519 35.897 35.4435 36.6661 34.25 36.6661C33.0565 36.6661 32.0482 35.897 31.6687 34.8328H22.1638C21.8869 35.6092 21.2755 36.2206 20.4991 36.4974V49.6688C21.5634 50.0483 22.3324 51.0566 22.3324 52.2501C22.3324 53.7662 21.0986 55 19.5824 55C18.0663 55 16.8324 53.7662 16.8324 52.2501C16.8324 51.0566 17.6015 50.0483 18.6658 49.6688ZM48 29.3329C48.5051 29.3329 48.9167 28.9222 48.9167 28.4162C48.9167 27.9102 48.5051 27.4996 48 27.4996C47.4949 27.4996 47.0834 27.9102 47.0834 28.4162C47.0834 28.9222 47.4949 29.3329 48 29.3329ZM34.25 34.8328C34.7551 34.8328 35.1667 34.4221 35.1667 33.9161C35.1667 33.4101 34.7551 32.9995 34.25 32.9995C33.7449 32.9995 33.3334 33.4101 33.3334 33.9161C33.3334 34.4221 33.7449 34.8328 34.25 34.8328ZM19.5834 53.1658C20.0884 53.1658 20.5 52.7551 20.5 52.2492C20.5 51.7432 20.0884 51.3325 19.5834 51.3325C19.0783 51.3325 18.6667 51.7432 18.6667 52.2492C18.6667 52.7551 19.0783 53.1658 19.5834 53.1658ZM19.5834 34.8328C20.0884 34.8328 20.5 34.4221 20.5 33.9161C20.5 33.4101 20.0884 32.9995 19.5834 32.9995C19.0783 32.9995 18.6667 33.4101 18.6667 33.9161C18.6667 34.4221 19.0783 34.8328 19.5834 34.8328Z" fill="#00B2FF"/>
<path d="M23.25 18.5017V15.5831C23.25 15.3392 23.3463 15.1064 23.5186 14.935L34.5259 3.92785C34.3536 3.56944 34.25 3.17345 34.25 2.74995C34.25 1.23381 35.4838 0 37 0C38.1935 0 39.2018 0.769071 39.5813 1.8333H43.4167C43.9227 1.8333 44.3333 2.24305 44.3333 2.74995V5.12041L47.7388 8.52577C48.0972 8.35344 48.4932 8.24986 48.9167 8.24986C50.4328 8.24986 51.6667 9.48368 51.6667 10.9998C51.6667 12.516 50.4328 13.7498 48.9167 13.7498C47.4005 13.7498 46.1667 12.516 46.1667 10.9998C46.1667 10.5763 46.2703 10.1803 46.4426 9.82192L42.7686 6.14798C42.5963 5.97657 42.5 5.74374 42.5 5.49991V3.66661H39.5813C39.2018 4.73084 38.1935 5.49991 37 5.49991C36.5765 5.49991 36.1805 5.39633 35.8221 5.224L25.0833 15.9626V18.5017C26.1476 18.8812 26.9167 19.8895 26.9167 21.083C26.9167 22.5991 25.6828 23.8329 24.1667 23.8329C22.6505 23.8329 21.4167 22.5991 21.4167 21.083C21.4167 19.8895 22.1858 18.8812 23.25 18.5017ZM48.9167 11.9165C49.4218 11.9165 49.8333 11.5058 49.8333 10.9998C49.8333 10.4938 49.4218 10.0832 48.9167 10.0832C48.4116 10.0832 48 10.4938 48 10.9998C48 11.5058 48.4116 11.9165 48.9167 11.9165ZM37 3.66661C37.5051 3.66661 37.9167 3.25595 37.9167 2.74995C37.9167 2.24396 37.5051 1.8333 37 1.8333C36.4949 1.8333 36.0833 2.24396 36.0833 2.74995C36.0833 3.25595 36.4949 3.66661 37 3.66661ZM24.1667 21.9996C24.6718 21.9996 25.0833 21.589 25.0833 21.083C25.0833 20.577 24.6718 20.1663 24.1667 20.1663C23.6616 20.1663 23.25 20.577 23.25 21.083C23.25 21.589 23.6616 21.9996 24.1667 21.9996Z" fill="#00B2FF"/>
<path d="M26 25.6662C27.1935 25.6662 28.2018 26.4353 28.5813 27.4995H39.3705L44.6019 22.2682C44.7733 22.0959 45.0071 21.9996 45.25 21.9996H54.9538L57.1667 19.7868V12.296L50.0946 5.224C49.7362 5.39633 49.3402 5.49991 48.9167 5.49991C47.4005 5.49991 46.1667 4.2661 46.1667 2.74995C46.1667 1.23381 47.4005 0 48.9167 0C50.4328 0 51.6667 1.23381 51.6667 2.74995C51.6667 3.17345 51.5631 3.56944 51.3907 3.92785L58.7314 11.2684C58.9037 11.4398 59 11.6726 59 11.9165V20.1663C59 20.4102 58.9037 20.643 58.7314 20.8144L55.9814 23.5644C55.81 23.7367 55.5762 23.8329 55.3333 23.8329H45.6295L40.3981 29.0643C40.2267 29.2366 39.9929 29.3328 39.75 29.3328H28.5813C28.2018 30.3971 27.1935 31.1661 26 31.1661C24.4838 31.1661 23.25 29.9323 23.25 28.4162C23.25 26.9001 24.4838 25.6662 26 25.6662ZM48.9167 1.8333C48.4116 1.8333 48 2.24396 48 2.74995C48 3.25595 48.4116 3.66661 48.9167 3.66661C49.4217 3.66661 49.8333 3.25595 49.8333 2.74995C49.8333 2.24396 49.4217 1.8333 48.9167 1.8333ZM26 29.3328C26.5051 29.3328 26.9167 28.9222 26.9167 28.4162C26.9167 27.9102 26.5051 27.4995 26 27.4995C25.4949 27.4995 25.0833 27.9102 25.0833 28.4162C25.0833 28.9222 25.4949 29.3328 26 29.3328Z" fill="#00B2FF"/>
<path d="M6.75001 21.9996C7.17351 21.9996 7.56951 22.1032 7.92793 22.2755L11.3333 18.8702V13.5811C10.2691 13.2016 9.50001 12.1933 9.50001 10.9998C9.50001 9.48368 10.7338 8.24986 12.25 8.24986C13.7662 8.24986 15 9.48368 15 10.9998C15 12.1933 14.2309 13.2016 13.1667 13.5811V19.2497C13.1667 19.4935 13.0704 19.7263 12.8981 19.8978L9.2241 23.5717C9.39643 23.9301 9.50001 24.3261 9.50001 24.7496C9.50001 25.9431 8.73093 26.9514 7.66668 27.3309V28.0367L14.7314 35.1013C14.9038 35.2727 15 35.5056 15 35.7494V36.8347C16.0643 37.2142 16.8333 38.2225 16.8333 39.416C16.8333 40.6095 16.0643 41.6178 15 41.9973V44.1688C16.0643 44.5483 16.8333 45.5567 16.8333 46.7501C16.8333 48.2663 15.5995 49.5001 14.0833 49.5001C12.5672 49.5001 11.3333 48.2663 11.3333 46.7501C11.3333 45.5567 12.1024 44.5483 13.1667 44.1688V41.9973C12.1024 41.6178 11.3333 40.6095 11.3333 39.416C11.3333 38.2225 12.1024 37.2142 13.1667 36.8347V36.1289L6.10193 29.0643C5.92959 28.8929 5.83334 28.66 5.83334 28.4162V27.3309C4.76909 26.9514 4.00001 25.9431 4.00001 24.7496C4.00001 23.2334 5.23384 21.9996 6.75001 21.9996ZM12.25 11.9165C12.7551 11.9165 13.1667 11.5058 13.1667 10.9998C13.1667 10.4938 12.7551 10.0832 12.25 10.0832C11.7449 10.0832 11.3333 10.4938 11.3333 10.9998C11.3333 11.5058 11.7449 11.9165 12.25 11.9165ZM14.0833 47.6659C14.5884 47.6659 15 47.2552 15 46.7492C15 46.2432 14.5884 45.8326 14.0833 45.8326C13.5783 45.8326 13.1667 46.2432 13.1667 46.7492C13.1667 47.2552 13.5783 47.6659 14.0833 47.6659ZM14.0833 40.3327C14.5884 40.3327 15 39.922 15 39.416C15 38.91 14.5884 38.4994 14.0833 38.4994C13.5783 38.4994 13.1667 38.91 13.1667 39.416C13.1667 39.922 13.5783 40.3327 14.0833 40.3327ZM6.75001 25.6662C7.25509 25.6662 7.66668 25.2556 7.66668 24.7496C7.66668 24.2436 7.25509 23.8329 6.75001 23.8329C6.24493 23.8329 5.83334 24.2436 5.83334 24.7496C5.83334 25.2556 6.24493 25.6662 6.75001 25.6662Z" fill="#00B2FF"/>
</g>
<defs>
<filter id="filter0_d_21803_3" x="1.52588e-05" y="0" width="210.373" height="63" filterUnits="userSpaceOnUse" color-interpolation-filters="sRGB">
<feFlood flood-opacity="0" result="BackgroundImageFix"/>
<feColorMatrix in="SourceAlpha" type="matrix" values="0 0 0 0 0 0 0 0 0 0 0 0 0 0 0 0 0 0 127 0" result="hardAlpha"/>
<feOffset dy="4"/>
<feGaussianBlur stdDeviation="2"/>
<feComposite in2="hardAlpha" operator="out"/>
<feColorMatrix type="matrix" values="0 0 0 0 0 0 0 0 0 0 0 0 0 0 0 0 0 0 0.25 0"/>
<feBlend mode="normal" in2="BackgroundImageFix" result="effect1_dropShadow_21803_3"/>
<feBlend mode="normal" in="SourceGraphic" in2="effect1_dropShadow_21803_3" result="shape"/>
</filter>
</defs>
</svg>
